<svg width="1440" height="1024" viewBox="0 0 1440 1024" fill="none" xmlns="http://www.w3.org/2000/svg">
<g clip-path="url(#clip0_192_65)">
<path d="M0 0H1440V1024H0V0Z" fill="white"/>
<mask id="mask0_192_65" style="mask-type:luminance" maskUnits="userSpaceOnUse" x="0" y="0" width="1440" height="1024">
<path d="M0 0H1440V1024H0V0Z" fill="url(#paint0_radial_192_65)"/>
</mask>
<g mask="url(#mask0_192_65)">
<path d="M143.836 0L179.671 21.0183V63.0535L143.836 84.0726L108 63.0543V21.0183L143.836 0ZM215.836 0L251.671 21.0183V63.0535L215.836 84.0726L180 63.0543V21.0183L215.836 0ZM287.836 0L323.671 21.0183V63.0535L287.836 84.0726L252 63.0543V21.0183L287.836 0Z" stroke="black" stroke-width="1.14942"/>
<path d="M503.836 0L539.671 21.0183V63.0535L503.836 84.0726L468 63.0543V21.0183L503.836 0Z" fill="black" fill-opacity="0.811765" stroke="black" stroke-width="1.14942"/>
<path d="M647.836 0L683.671 21.0183V63.0535L647.836 84.0726L612 63.0543V21.0183L647.836 0ZM719.836 0L755.671 21.0183V63.0535L719.836 84.0726L684 63.0543V21.0183L719.836 0ZM791.836 0L827.671 21.0183V63.0535L791.836 84.0726L756 63.0543V21.0183L791.836 0ZM863.836 0L899.671 21.0183V63.0535L863.836 84.0726L828 63.0543V21.0183L863.836 0ZM1007.84 0L1043.67 21.0183V63.0535L1007.84 84.0726L972 63.0543V21.0183L1007.84 0Z" stroke="black" stroke-width="1.14942"/>
<path d="M1367.84 0L1403.67 21.0183V63.0535L1367.84 84.0726L1332 63.0543V21.0183L1367.84 0Z" fill="black" fill-opacity="0.678431" stroke="black" stroke-width="1.14942"/>
<path d="M1439.84 0L1475.67 21.0183V63.0535L1439.84 84.0726L1404 63.0543V21.0183L1439.84 0ZM35.8358 63.0543L71.671 84.0726V126.108L35.8358 147.127L0 126.109V84.0726L35.8358 63.0543ZM107.836 63.0543L143.671 84.0726V126.108L107.836 147.126L72 126.109V84.0726L107.836 63.0543ZM251.836 63.0543L287.671 84.0726V126.108L251.836 147.126L216 126.109V84.0726L251.836 63.0543Z" stroke="black" stroke-width="1.14942"/>
<path d="M467.836 63.0543L503.671 84.0726V126.108L467.836 147.126L432 126.109V84.0726L467.836 63.0543Z" fill="black" fill-opacity="0.0862745" stroke="black" stroke-width="1.14942"/>
<path d="M539.836 63.0543L575.671 84.0726V126.108L539.836 147.126L504 126.109V84.0726L539.836 63.0543ZM755.836 63.0543L791.671 84.0726V126.108L755.836 147.126L720 126.109V84.0726L755.836 63.0543ZM1115.84 63.0543L1151.67 84.0726V126.108L1115.84 147.126L1080 126.109V84.0726L1115.84 63.0543ZM1187.84 63.0543L1223.67 84.0726V126.108L1187.84 147.126L1152 126.109V84.0726L1187.84 63.0543ZM1331.84 63.0543L1367.67 84.0726V126.108L1331.84 147.126L1296 126.109V84.0726L1331.84 63.0543ZM71.8358 126.109L107.671 147.126V189.163L71.8358 210.18L36 189.163V147.126L71.8358 126.109Z" stroke="black" stroke-width="1.14942"/>
<path d="M143.836 126.109L179.671 147.126V189.163L143.836 210.18L108 189.163V147.126L143.836 126.109Z" fill="black" fill-opacity="0.854902" stroke="black" stroke-width="1.14942"/>
<path d="M287.836 126.109L323.671 147.126V189.163L287.836 210.18L252 189.163V147.126L287.836 126.109ZM935.836 126.109L971.671 147.126V189.163L935.836 210.18L900 189.163V147.126L935.836 126.109ZM1007.84 126.109L1043.67 147.126V189.163L1007.84 210.18L972 189.163V147.126L1007.84 126.109ZM1079.84 126.109L1115.67 147.126V189.163L1079.84 210.18L1044 189.163V147.126L1079.84 126.109ZM1151.84 126.109L1187.67 147.126V189.163L1151.84 210.18L1116 189.163V147.126L1151.84 126.109ZM1223.84 126.109L1259.67 147.126V189.163L1223.84 210.18L1188 189.163V147.126L1223.84 126.109ZM1295.84 126.109L1331.67 147.126V189.163L1295.84 210.18L1260 189.163V147.126L1295.84 126.109Z" stroke="black" stroke-width="1.14942"/>
<path d="M1439.84 126.109L1475.67 147.126V189.163L1439.84 210.18L1404 189.163V147.126L1439.84 126.109Z" fill="black" fill-opacity="0.0823529" stroke="black" stroke-width="1.14942"/>
<path d="M179.836 189.162L215.671 210.18V252.217L179.836 273.235L144 252.217V210.18L179.836 189.162Z" stroke="black" stroke-width="1.14942"/>
<path d="M395.836 189.162L431.671 210.18V252.217L395.836 273.235L360 252.217V210.18L395.836 189.162Z" fill="black" fill-opacity="0.788235" stroke="black" stroke-width="1.14942"/>
<path d="M467.836 189.162L503.671 210.18V252.217L467.836 273.235L432 252.217V210.18L467.836 189.162ZM539.836 189.162L575.671 210.18V252.217L539.836 273.235L504 252.217V210.18L539.836 189.162ZM611.836 189.162L647.671 210.18V252.217L611.836 273.235L576 252.217V210.18L611.836 189.162Z" stroke="black" stroke-width="1.14942"/>
<path d="M683.836 189.162L719.671 210.18V252.217L683.836 273.235L648 252.217V210.18L683.836 189.162Z" fill="black" fill-opacity="0.0980392" stroke="black" stroke-width="1.14942"/>
<path d="M827.836 189.162L863.671 210.18V252.217L827.836 273.235L792 252.217V210.18L827.836 189.162ZM899.836 189.162L935.671 210.18V252.217L899.836 273.235L864 252.217V210.18L899.836 189.162Z" stroke="black" stroke-width="1.14942"/>
<path d="M971.836 189.162L1007.67 210.18V252.217L971.836 273.235L936 252.217V210.18L971.836 189.162Z" fill="black" fill-opacity="0.698039" stroke="black" stroke-width="1.14942"/>
<path d="M1331.84 189.162L1367.67 210.18V252.217L1331.84 273.235L1296 252.217V210.18L1331.84 189.162Z" fill="black" fill-opacity="0.0941176" stroke="black" stroke-width="1.14942"/>
<path d="M1403.84 189.162L1439.67 210.18V252.217L1403.84 273.235L1368 252.217V210.18L1403.84 189.162ZM71.8358 252.217L107.671 273.235V315.271L71.8358 336.289L36 315.271V273.235L71.8358 252.217ZM143.836 252.217L179.671 273.235V315.271L143.836 336.289L108 315.271V273.235L143.836 252.217Z" stroke="black" stroke-width="1.14942"/>
<path d="M431.836 252.217L467.671 273.235V315.271L431.836 336.289L396 315.271V273.235L431.836 252.217Z" fill="black" fill-opacity="0.380392" stroke="black" stroke-width="1.14942"/>
<path d="M503.836 252.217L539.671 273.235V315.271L503.836 336.289L468 315.271V273.235L503.836 252.217ZM1223.84 252.217L1259.67 273.235V315.271L1223.84 336.289L1188 315.271V273.235L1223.84 252.217Z" stroke="black" stroke-width="1.14942"/>
<path d="M1367.84 252.217L1403.67 273.235V315.271L1367.84 336.289L1332 315.271V273.235L1367.84 252.217Z" fill="black" fill-opacity="0.682353" stroke="black" stroke-width="1.14942"/>
<path d="M1439.84 252.217L1475.67 273.235V315.271L1439.84 336.289L1404 315.271V273.235L1439.84 252.217ZM35.8358 315.271L71.671 336.289V378.325L35.8358 399.343L0 378.325V336.29L35.8358 315.271ZM251.836 315.271L287.671 336.289V378.325L251.836 399.343L216 378.325V336.29L251.836 315.271Z" stroke="black" stroke-width="1.14942"/>
<path d="M395.836 315.271L431.671 336.289V378.325L395.836 399.343L360 378.325V336.29L395.836 315.271Z" fill="black" fill-opacity="0.694118" stroke="black" stroke-width="1.14942"/>
<path d="M467.836 315.271L503.671 336.289V378.325L467.836 399.343L432 378.325V336.29L467.836 315.271Z" fill="black" fill-opacity="0.811765" stroke="black" stroke-width="1.14942"/>
<path d="M755.836 315.271L791.671 336.289V378.325L755.836 399.343L720 378.325V336.29L755.836 315.271Z" fill="black" fill-opacity="0.509804" stroke="black" stroke-width="1.14942"/>
<path d="M827.836 315.271L863.671 336.289V378.325L827.836 399.343L792 378.325V336.29L827.836 315.271ZM899.836 315.271L935.671 336.289V378.325L899.836 399.343L864 378.325V336.29L899.836 315.271ZM971.836 315.271L1007.67 336.289V378.325L971.836 399.343L936 378.325V336.29L971.836 315.271Z" stroke="black" stroke-width="1.14942"/>
<path d="M1259.84 315.271L1295.67 336.289V378.325L1259.84 399.343L1224 378.325V336.29L1259.84 315.271Z" fill="black" fill-opacity="0.356863" stroke="black" stroke-width="1.14942"/>
<path d="M215.836 378.325L251.671 399.343V441.379L215.836 462.397L180 441.379V399.343L215.836 378.325Z" fill="black" fill-opacity="0.686275" stroke="black" stroke-width="1.14942"/>
<path d="M287.836 378.325L323.671 399.343V441.379L287.836 462.397L252 441.379V399.343L287.836 378.325Z" fill="black" fill-opacity="0.027451" stroke="black" stroke-width="1.14942"/>
<path d="M431.836 378.325L467.671 399.343V441.379L431.836 462.397L396 441.379V399.343L431.836 378.325ZM503.836 378.325L539.671 399.343V441.379L503.836 462.397L468 441.379V399.343L503.836 378.325Z" stroke="black" stroke-width="1.14942"/>
<path d="M575.836 378.325L611.671 399.343V441.379L575.836 462.397L540 441.379V399.343L575.836 378.325Z" fill="black" fill-opacity="0.890196" stroke="black" stroke-width="1.14942"/>
<path d="M791.836 378.325L827.671 399.343V441.379L791.836 462.397L756 441.379V399.343L791.836 378.325ZM863.836 378.325L899.671 399.343V441.379L863.836 462.397L828 441.379V399.343L863.836 378.325ZM1007.84 378.325L1043.67 399.343V441.379L1007.84 462.397L972 441.379V399.343L1007.84 378.325ZM1151.84 378.325L1187.67 399.343V441.379L1151.84 462.397L1116 441.379V399.343L1151.84 378.325ZM1223.84 378.325L1259.67 399.343V441.379L1223.84 462.397L1188 441.379V399.343L1223.84 378.325ZM1295.84 378.325L1331.67 399.343V441.379L1295.84 462.397L1260 441.379V399.343L1295.84 378.325Z" stroke="black" stroke-width="1.14942"/>
<path d="M1439.84 378.325L1475.67 399.343V441.379L1439.84 462.397L1404 441.379V399.343L1439.84 378.325Z" fill="black" fill-opacity="0.25098" stroke="black" stroke-width="1.14942"/>
<path d="M107.836 441.379L143.671 462.397V504.433L107.836 525.452L72 504.433V462.397L107.836 441.379ZM179.836 441.379L215.671 462.397V504.433L179.836 525.452L144 504.433V462.397L179.836 441.379ZM323.836 441.379L359.671 462.397V504.433L323.836 525.452L288 504.433V462.397L323.836 441.379ZM395.836 441.379L431.671 462.397V504.433L395.836 525.452L360 504.433V462.397L395.836 441.379Z" stroke="black" stroke-width="1.14942"/>
<path d="M467.836 441.379L503.671 462.397V504.433L467.836 525.452L432 504.433V462.397L467.836 441.379Z" fill="black" fill-opacity="0.729412" stroke="black" stroke-width="1.14942"/>
<path d="M539.836 441.379L575.671 462.397V504.433L539.836 525.452L504 504.433V462.397L539.836 441.379Z" fill="black" fill-opacity="0.247059" stroke="black" stroke-width="1.14942"/>
<path d="M1115.84 441.379L1151.67 462.397V504.433L1115.84 525.452L1080 504.433V462.397L1115.84 441.379ZM1187.84 441.379L1223.67 462.397V504.433L1187.84 525.452L1152 504.433V462.397L1187.84 441.379ZM1331.84 441.379L1367.67 462.397V504.433L1331.84 525.452L1296 504.433V462.397L1331.84 441.379ZM1403.84 441.379L1439.67 462.397V504.433L1403.84 525.452L1368 504.433V462.397L1403.84 441.379ZM143.836 504.433L179.671 525.452V567.488L143.836 588.506L108 567.488V525.452L143.836 504.433ZM215.836 504.433L251.671 525.452V567.488L215.836 588.506L180 567.488V525.452L215.836 504.433ZM287.836 504.433L323.671 525.452V567.488L287.836 588.506L252 567.488V525.452L287.836 504.433Z" stroke="black" stroke-width="1.14942"/>
<path d="M359.836 504.433L395.671 525.452V567.488L359.836 588.506L324 567.488V525.452L359.836 504.433Z" fill="black" fill-opacity="0.952941" stroke="black" stroke-width="1.14942"/>
<path d="M431.836 504.433L467.671 525.452V567.488L431.836 588.506L396 567.488V525.452L431.836 504.433Z" stroke="black" stroke-width="1.14942"/>
<path d="M503.836 504.433L539.671 525.452V567.488L503.836 588.506L468 567.488V525.452L503.836 504.433Z" fill="black" fill-opacity="0.368627" stroke="black" stroke-width="1.14942"/>
<path d="M647.836 504.433L683.671 525.452V567.488L647.836 588.506L612 567.488V525.452L647.836 504.433ZM719.836 504.433L755.671 525.452V567.488L719.836 588.506L684 567.488V525.452L719.836 504.433ZM863.836 504.433L899.671 525.452V567.488L863.836 588.506L828 567.488V525.452L863.836 504.433Z" stroke="black" stroke-width="1.14942"/>
<path d="M935.836 504.433L971.671 525.452V567.488L935.836 588.506L900 567.488V525.452L935.836 504.433Z" fill="black" fill-opacity="0.0196078" stroke="black" stroke-width="1.14942"/>
<path d="M1079.84 504.433L1115.67 525.452V567.488L1079.84 588.506L1044 567.488V525.452L1079.84 504.433ZM35.8358 567.488L71.671 588.506V630.542L35.8358 651.56L0 630.542V588.506L35.8358 567.488ZM107.836 567.488L143.671 588.506V630.542L107.836 651.56L72 630.542V588.506L107.836 567.488ZM179.836 567.488L215.671 588.506V630.542L179.836 651.56L144 630.542V588.506L179.836 567.488ZM323.836 567.488L359.671 588.506V630.542L323.836 651.56L288 630.542V588.506L323.836 567.488ZM395.836 567.488L431.671 588.506V630.542L395.836 651.56L360 630.542V588.506L395.836 567.488ZM467.836 567.488L503.671 588.506V630.542L467.836 651.56L432 630.542V588.506L467.836 567.488ZM611.836 567.488L647.671 588.506V630.542L611.836 651.56L576 630.542V588.506L611.836 567.488ZM899.836 567.488L935.671 588.506V630.542L899.836 651.56L864 630.542V588.506L899.836 567.488ZM1043.84 567.488L1079.67 588.506V630.542L1043.84 651.56L1008 630.542V588.506L1043.84 567.488Z" stroke="black" stroke-width="1.14942"/>
<path d="M1115.84 567.488L1151.67 588.506V630.542L1115.84 651.56L1080 630.542V588.506L1115.84 567.488Z" fill="black" fill-opacity="0.745098" stroke="black" stroke-width="1.14942"/>
<path d="M1187.84 567.488L1223.67 588.506V630.542L1187.84 651.56L1152 630.542V588.506L1187.84 567.488ZM71.8358 630.542L107.671 651.56V693.595L71.8358 714.614L36 693.596V651.56L71.8358 630.542ZM143.836 630.542L179.671 651.56V693.595L143.836 714.614L108 693.596V651.56L143.836 630.542ZM215.836 630.542L251.671 651.56V693.595L215.836 714.614L180 693.596V651.56L215.836 630.542ZM791.836 630.542L827.671 651.56V693.595L791.836 714.614L756 693.596V651.56L791.836 630.542ZM863.836 630.542L899.671 651.56V693.595L863.836 714.614L828 693.596V651.56L863.836 630.542Z" stroke="black" stroke-width="1.14942"/>
<path d="M1007.84 630.542L1043.67 651.56V693.595L1007.84 714.614L972 693.596V651.56L1007.84 630.542Z" fill="black" fill-opacity="0.631373" stroke="black" stroke-width="1.14942"/>
<path d="M1079.84 630.542L1115.67 651.56V693.595L1079.84 714.614L1044 693.596V651.56L1079.84 630.542Z" fill="black" fill-opacity="0.552941" stroke="black" stroke-width="1.14942"/>
<path d="M1151.84 630.542L1187.67 651.56V693.595L1151.84 714.614L1116 693.596V651.56L1151.84 630.542Z" fill="black" fill-opacity="0.952941" stroke="black" stroke-width="1.14942"/>
<path d="M1223.84 630.542L1259.67 651.56V693.595L1223.84 714.614L1188 693.596V651.56L1223.84 630.542ZM1439.84 630.542L1475.67 651.56V693.595L1439.84 714.614L1404 693.596V651.56L1439.84 630.542ZM179.836 693.596L215.671 714.614V756.65L179.836 777.668L144 756.65V714.613L179.836 693.596Z" stroke="black" stroke-width="1.14942"/>
<path d="M323.836 693.596L359.671 714.614V756.65L323.836 777.668L288 756.65V714.613L323.836 693.596Z" fill="black" fill-opacity="0.654902" stroke="black" stroke-width="1.14942"/>
<path d="M539.836 693.596L575.671 714.614V756.65L539.836 777.668L504 756.65V714.613L539.836 693.596Z" stroke="black" stroke-width="1.14942"/>
<path d="M683.836 693.596L719.671 714.614V756.65L683.836 777.668L648 756.65V714.613L683.836 693.596Z" fill="black" fill-opacity="0.945098" stroke="black" stroke-width="1.14942"/>
<path d="M827.836 693.596L863.671 714.614V756.65L827.836 777.668L792 756.65V714.613L827.836 693.596Z" stroke="black" stroke-width="1.14942"/>
<path d="M1043.84 693.596L1079.67 714.614V756.65L1043.84 777.668L1008 756.65V714.613L1043.84 693.596Z" fill="black" fill-opacity="0.211765" stroke="black" stroke-width="1.14942"/>
<path d="M1115.84 693.596L1151.67 714.614V756.65L1115.84 777.668L1080 756.65V714.613L1115.84 693.596ZM1187.84 693.596L1223.67 714.614V756.65L1187.84 777.668L1152 756.65V714.613L1187.84 693.596ZM1259.84 693.596L1295.67 714.614V756.65L1259.84 777.668L1224 756.65V714.613L1259.84 693.596ZM1331.84 693.596L1367.67 714.614V756.65L1331.84 777.668L1296 756.65V714.613L1331.84 693.596ZM143.836 756.65L179.671 777.668V819.705L143.836 840.722L108 819.705V777.668L143.836 756.65ZM215.836 756.65L251.671 777.668V819.705L215.836 840.722L180 819.705V777.668L215.836 756.65Z" stroke="black" stroke-width="1.14942"/>
<path d="M287.836 756.65L323.671 777.668V819.705L287.836 840.722L252 819.705V777.668L287.836 756.65Z" fill="black" fill-opacity="0.831373" stroke="black" stroke-width="1.14942"/>
<path d="M359.836 756.65L395.671 777.668V819.705L359.836 840.722L324 819.705V777.668L359.836 756.65Z" fill="black" fill-opacity="0.807843" stroke="black" stroke-width="1.14942"/>
<path d="M431.836 756.65L467.671 777.668V819.705L431.836 840.722L396 819.705V777.668L431.836 756.65ZM503.836 756.65L539.671 777.668V819.705L503.836 840.722L468 819.705V777.668L503.836 756.65ZM575.836 756.65L611.671 777.668V819.705L575.836 840.722L540 819.705V777.668L575.836 756.65Z" stroke="black" stroke-width="1.14942"/>
<path d="M791.836 756.65L827.671 777.668V819.705L791.836 840.722L756 819.705V777.668L791.836 756.65Z" fill="black" fill-opacity="0.796078" stroke="black" stroke-width="1.14942"/>
<path d="M935.836 756.65L971.671 777.668V819.705L935.836 840.722L900 819.705V777.668L935.836 756.65ZM1295.84 756.65L1331.67 777.668V819.705L1295.84 840.722L1260 819.705V777.668L1295.84 756.65ZM1367.84 756.65L1403.67 777.668V819.705L1367.84 840.722L1332 819.705V777.668L1367.84 756.65ZM35.8358 819.705L71.671 840.722V882.759L35.8358 903.777L0 882.759V840.722L35.8358 819.705Z" stroke="black" stroke-width="1.14942"/>
<path d="M107.836 819.705L143.671 840.722V882.759L107.836 903.777L72 882.759V840.722L107.836 819.705Z" fill="black" fill-opacity="0.0784314" stroke="black" stroke-width="1.14942"/>
<path d="M323.836 819.705L359.671 840.722V882.759L323.836 903.777L288 882.759V840.722L323.836 819.705Z" fill="black" fill-opacity="0.619608" stroke="black" stroke-width="1.14942"/>
<path d="M395.836 819.705L431.671 840.722V882.759L395.836 903.777L360 882.759V840.722L395.836 819.705Z" stroke="black" stroke-width="1.14942"/>
<path d="M467.836 819.705L503.671 840.722V882.759L467.836 903.777L432 882.759V840.722L467.836 819.705Z" fill="black" fill-opacity="0.886275" stroke="black" stroke-width="1.14942"/>
<path d="M539.836 819.705L575.671 840.722V882.759L539.836 903.777L504 882.759V840.722L539.836 819.705ZM683.836 819.705L719.671 840.722V882.759L683.836 903.777L648 882.759V840.722L683.836 819.705ZM971.836 819.705L1007.67 840.722V882.759L971.836 903.777L936 882.759V840.722L971.836 819.705ZM1043.84 819.705L1079.67 840.722V882.759L1043.84 903.777L1008 882.759V840.722L1043.84 819.705ZM1187.84 819.705L1223.67 840.722V882.759L1187.84 903.777L1152 882.759V840.722L1187.84 819.705ZM1259.84 819.705L1295.67 840.722V882.759L1259.84 903.777L1224 882.759V840.722L1259.84 819.705ZM1331.84 819.705L1367.67 840.722V882.759L1331.84 903.777L1296 882.759V840.722L1331.84 819.705ZM143.836 882.759L179.671 903.777V945.813L143.836 966.831L108 945.813V903.777L143.836 882.759ZM359.836 882.759L395.671 903.777V945.813L359.836 966.831L324 945.813V903.777L359.836 882.759ZM503.836 882.759L539.671 903.777V945.813L503.836 966.831L468 945.813V903.777L503.836 882.759ZM647.836 882.759L683.671 903.777V945.813L647.836 966.831L612 945.813V903.777L647.836 882.759ZM719.836 882.759L755.671 903.777V945.813L719.836 966.831L684 945.813V903.777L719.836 882.759Z" stroke="black" stroke-width="1.14942"/>
<path d="M791.836 882.759L827.671 903.777V945.812L791.836 966.831L756 945.812V903.777L791.836 882.759Z" fill="black" fill-opacity="0.694118" stroke="black" stroke-width="1.14942"/>
<path d="M935.836 882.759L971.671 903.777V945.812L935.836 966.831L900 945.812V903.777L935.836 882.759ZM1007.84 882.759L1043.67 903.777V945.812L1007.84 966.831L972 945.812V903.777L1007.84 882.759Z" stroke="black" stroke-width="1.14942"/>
<path d="M1079.84 882.759L1115.67 903.777V945.812L1079.84 966.831L1044 945.812V903.777L1079.84 882.759Z" fill="black" fill-opacity="0.172549" stroke="black" stroke-width="1.14942"/>
<path d="M1151.84 882.759L1187.67 903.777V945.812L1151.84 966.831L1116 945.812V903.777L1151.84 882.759ZM1295.84 882.759L1331.67 903.777V945.812L1295.84 966.831L1260 945.812V903.777L1295.84 882.759ZM1367.84 882.759L1403.67 903.777V945.812L1367.84 966.831L1332 945.812V903.777L1367.84 882.759ZM35.8358 945.812L71.671 966.831V1008.87L35.8358 1029.89L0 1008.87V966.831L35.8358 945.812Z" stroke="black" stroke-width="1.14942"/>
<path d="M107.836 945.812L143.671 966.831V1008.87L107.836 1029.89L72 1008.87V966.832L107.836 945.812Z" fill="black" fill-opacity="0.74902" stroke="black" stroke-width="1.14942"/>
<path d="M323.836 945.812L359.671 966.831V1008.87L323.836 1029.89L288 1008.87V966.832L323.836 945.812ZM395.836 945.812L431.671 966.831V1008.87L395.836 1029.89L360 1008.87V966.832L395.836 945.812Z" stroke="black" stroke-width="1.14942"/>
<path d="M467.836 945.812L503.671 966.831V1008.87L467.836 1029.89L432 1008.87V966.832L467.836 945.812Z" fill="black" fill-opacity="0.643137" stroke="black" stroke-width="1.14942"/>
<path d="M539.836 945.812L575.671 966.831V1008.87L539.836 1029.89L504 1008.87V966.832L539.836 945.812ZM899.836 945.812L935.671 966.831V1008.87L899.836 1029.89L864 1008.87V966.832L899.836 945.812Z" stroke="black" stroke-width="1.14942"/>
<path d="M1187.84 945.812L1223.67 966.831V1008.87L1187.84 1029.89L1152 1008.87V966.832L1187.84 945.812Z" fill="black" fill-opacity="0.01" stroke="black" stroke-width="1.14942"/>
<path d="M1331.84 945.812L1367.67 966.831V1008.87L1331.84 1029.89L1296 1008.87V966.832L1331.84 945.812Z" fill="black" fill-opacity="0.74902" stroke="black" stroke-width="1.14942"/>
<path d="M71.8358 1008.87L107.671 1029.89V1071.92L71.8358 1092.94L36 1071.92V1029.89L71.8358 1008.87Z" fill="black" fill-opacity="0.321569" stroke="black" stroke-width="1.14942"/>
<path d="M143.836 1008.87L179.671 1029.89V1071.92L143.836 1092.94L108 1071.92V1029.89L143.836 1008.87ZM215.836 1008.87L251.671 1029.89V1071.92L215.836 1092.94L180 1071.92V1029.89L215.836 1008.87ZM431.836 1008.87L467.671 1029.89V1071.92L431.836 1092.94L396 1071.92V1029.89L431.836 1008.87ZM647.836 1008.87L683.671 1029.89V1071.92L647.836 1092.94L612 1071.92V1029.89L647.836 1008.87ZM935.836 1008.87L971.671 1029.89V1071.92L935.836 1092.94L900 1071.92V1029.89L935.836 1008.87ZM1151.84 1008.87L1187.67 1029.89V1071.92L1151.84 1092.94L1116 1071.92V1029.89L1151.84 1008.87ZM1367.84 1008.87L1403.67 1029.89V1071.92L1367.84 1092.94L1332 1071.92V1029.89L1367.84 1008.87ZM107.836 1071.92L143.671 1092.94V1134.98L107.836 1155.99L72 1134.98V1092.94L107.836 1071.92Z" stroke="black" stroke-width="1.14942"/>
</g>
</g>
<defs>
<radialGradient id="paint0_radial_192_65" cx="0" cy="0" r="1" gradientUnits="userSpaceOnUse" gradientTransform="translate(720 512) scale(720 512)">
<stop stop-color="white"/>
<stop offset="1" stop-color="white" stop-opacity="0"/>
</radialGradient>
<clipPath id="clip0_192_65">
<rect width="1440" height="1024" fill="white"/>
</clipPath>
</defs>
</svg>
